<?xml version="1.0" standalone="no"?>
<!DOCTYPE svg PUBLIC "-//W3C//DTD SVG 20010904//EN"
 "http://www.w3.org/TR/2001/REC-SVG-20010904/DTD/svg10.dtd">
<svg version="1.0" xmlns="http://www.w3.org/2000/svg"
 width="1280.000000pt" height="858.000000pt" viewBox="0 0 1280.000000 858.000000"
 preserveAspectRatio="xMidYMid meet">
<metadata>
Created by potrace 1.15, written by Peter Selinger 2001-2017
</metadata>
<g transform="translate(0.000000,858.000000) scale(0.100000,-0.100000)"
fill="#3f51b5" stroke="none">
<path d="M9840 8564 c-61 -22 -120 -64 -170 -121 -41 -47 -110 -160 -110 -180
0 -6 20 -14 45 -17 25 -4 45 -9 45 -12 0 -2 -12 -23 -26 -45 -14 -23 -24 -43
-22 -45 3 -2 76 -13 164 -24 447 -58 858 -145 1160 -245 321 -107 539 -230
690 -387 189 -197 266 -335 445 -797 30 -76 68 -152 99 -197 75 -109 145 -262
179 -394 28 -111 58 -307 48 -317 -3 -3 -22 14 -42 36 -44 49 -68 54 -59 14 3
-16 59 -136 125 -268 146 -294 201 -459 224 -671 5 -51 11 -64 30 -74 36 -19
56 -72 65 -169 15 -152 -21 -565 -66 -761 l-17 -74 -43 124 c-24 69 -66 172
-94 228 l-52 104 37 106 c20 59 53 145 73 192 l37 85 7 -45 c3 -25 8 -135 9
-245 2 -163 3 -185 9 -120 14 142 23 468 16 528 -7 55 -9 57 -36 57 -89 0
-195 -210 -359 -716 -78 -237 -114 -371 -160 -594 -47 -221 -102 -364 -172
-444 -28 -32 -80 -65 -206 -131 -290 -152 -553 -295 -702 -382 -78 -47 -144
-83 -146 -81 -1 2 -10 39 -20 83 -45 214 -134 473 -223 650 -41 83 -136 242
-162 270 -16 18 -17 29 -8 95 5 41 7 179 5 305 -4 181 -10 248 -25 315 -40
167 -92 263 -174 317 -58 39 -167 44 -251 13 -134 -50 -366 -241 -484 -398
-127 -168 -266 -500 -369 -879 -14 -54 -27 -99 -28 -100 -10 -12 -463 -93
-736 -132 -465 -67 -863 -103 -1750 -160 l-125 -8 170 -2 c188 -1 677 13 995
29 482 25 959 71 1306 126 112 18 115 21 130 99 8 46 20 35 29 -27 7 -46 6
-48 -18 -48 -13 0 -29 -6 -34 -13 -6 -6 -42 -86 -81 -177 -39 -91 -97 -221
-130 -290 -279 -589 -570 -890 -960 -991 -89 -23 -264 -49 -338 -49 -41 0 -70
-10 -147 -49 -53 -27 -102 -51 -108 -53 -9 -3 -9 -9 0 -26 14 -27 0 -29 -23
-3 -11 12 -13 20 -6 23 6 2 -65 96 -158 209 -519 634 -766 1047 -838 1404 -9
44 -30 106 -47 138 -57 108 -201 218 -331 251 -32 9 -261 31 -509 51 -249 19
-463 36 -477 38 -14 1 373 0 860 -1 1213 -5 1941 21 2325 83 147 24 185 39
282 114 139 108 202 182 266 313 66 136 89 204 166 503 67 258 89 322 166 480
120 246 265 419 409 491 73 35 86 39 160 39 139 0 252 -57 398 -201 134 -132
232 -278 358 -532 41 -82 80 -151 86 -151 31 -3 1243 365 1549 469 174 60 241
90 165 75 -165 -32 -671 -177 -1403 -402 -153 -46 -279 -83 -281 -81 -1 1 -9
41 -19 87 -17 86 -63 195 -131 306 -40 67 -42 65 -21 -20 18 -75 18 -75 1 -75
-9 0 -20 32 -33 100 -16 77 -17 97 -7 89 18 -15 19 -23 -17 159 -92 475 -124
626 -154 736 -34 125 -74 240 -81 234 -2 -2 6 -28 17 -58 25 -66 70 -239 98
-380 27 -131 120 -654 117 -657 -1 -1 -22 25 -46 59 -60 82 -173 195 -252 252
-381 271 -765 86 -1053 -509 -71 -146 -114 -270 -180 -525 -59 -225 -86 -304
-140 -416 -51 -105 -106 -170 -219 -259 -72 -56 -90 -65 -156 -79 -147 -30
-457 -56 -915 -77 -305 -14 -1862 -24 -2237 -14 l-298 7 0 84 c0 130 13 124
-330 144 -260 14 -1478 85 -2082 120 -279 17 -529 30 -556 30 -72 0 -86 -20
-91 -126 l-3 -85 -42 6 c-22 3 -131 16 -241 30 -608 77 -998 176 -1153 292
-21 15 -32 19 -32 11 -1 -7 -7 -2 -15 12 -19 33 -19 46 0 30 19 -16 22 -8 30
90 14 164 62 454 64 390 1 -8 14 -42 29 -75 58 -121 207 -222 462 -310 112
-39 468 -111 480 -98 7 7 216 534 265 665 17 45 17 49 -10 175 -14 70 -40 184
-56 252 -16 68 -29 128 -29 133 0 6 22 8 58 4 81 -9 641 -34 1012 -46 173 -5
389 -12 480 -15 280 -9 1537 -34 2315 -45 407 -6 763 -12 792 -13 l51 -2 -75
-104 c-42 -58 -133 -190 -204 -294 -103 -152 -127 -194 -123 -215 2 -15 29
-189 59 -386 30 -198 59 -363 65 -366 5 -3 180 -14 388 -25 407 -20 637 -15
942 20 648 76 927 285 1047 788 24 100 23 308 -1 396 -42 152 -128 263 -227
291 -18 6 -320 17 -669 25 -616 14 -870 19 -2825 50 -2028 33 -2971 62 -3475
105 -122 11 -273 30 -278 35 -2 1 23 23 55 47 274 208 734 386 1343 521 266
59 418 86 794 142 170 25 314 49 321 53 7 4 70 72 141 152 472 531 990 988
1379 1215 161 94 267 138 430 180 l130 34 -137 0 c-136 1 -180 12 -93 24 56 8
371 34 490 41 l90 5 -144 -29 c-144 -29 -199 -48 -106 -37 111 14 2042 20
2495 8 726 -19 1573 -61 1956 -97 l61 -5 -23 -102 c-13 -56 -55 -293 -94 -527
-65 -388 -91 -525 -137 -725 -17 -77 -60 -205 -73 -218 -9 -10 -47 -7 -785 78
-1337 154 -2150 207 -3185 207 -823 1 -1540 -37 -2128 -112 -84 -11 -160 -20
-169 -20 -13 0 -14 -3 -6 -11 9 -9 127 -7 470 7 563 23 2013 27 2413 6 665
-34 1083 -66 1750 -132 321 -32 345 -34 940 -85 222 -19 424 -35 447 -35 24 0
43 -4 43 -10 0 -5 -4 -10 -10 -10 -23 0 -507 -178 -629 -231 -198 -87 -451
-234 -556 -324 -16 -14 17 5 75 43 272 179 453 259 922 408 147 46 280 90 295
96 27 12 27 12 -22 18 l-50 5 89 34 c72 27 90 31 97 20 16 -25 10 -37 -21 -44
-47 -10 -45 -25 4 -25 24 0 51 -3 59 -6 19 -7 89 120 151 278 85 214 124 435
161 933 14 187 32 385 39 440 7 55 12 101 11 103 -3 4 -386 37 -660 56 -873
64 -1841 90 -2730 75 -499 -8 -790 -17 -835 -25 -18 -3 -21 -2 -10 5 35 20
589 88 990 120 475 39 666 46 1260 46 624 -1 1033 -18 1421 -61 l56 -6 17 48
c9 26 14 49 12 52 -11 11 -390 46 -726 67 -551 35 -1761 28 -1783 -11 -6 -11
-34 -14 -125 -13 -138 1 -117 16 26 18 50 1 92 5 92 10 0 41 -700 208 -916
218 -106 6 -166 -3 -257 -37 -125 -47 -296 -185 -366 -295 -37 -59 -39 -75 -8
-68 19 4 20 3 4 -7 -9 -6 -22 -8 -27 -5 -11 7 -156 -22 -313 -61 -362 -91
-767 -356 -1304 -856 -203 -188 -474 -471 -672 -700 -3 -4 -85 -14 -181 -22
-468 -41 -1178 -194 -1590 -343 -402 -145 -634 -276 -826 -468 -308 -307 -465
-736 -529 -1440 -20 -222 -45 -650 -45 -762 0 -245 59 -504 160 -705 145 -288
402 -535 695 -668 54 -25 182 -87 283 -139 101 -51 221 -106 265 -123 202 -74
384 -76 568 -7 l56 20 424 -50 c851 -102 1953 -232 2754 -326 787 -92 824 -97
915 -130 242 -86 431 -129 624 -143 265 -19 494 27 718 144 l73 39 -3 -131
c-4 -148 12 -256 58 -396 141 -423 485 -721 945 -819 210 -44 480 -49 670 -12
l90 18 -115 6 c-116 6 -234 30 -280 56 l-25 14 30 -5 c17 -3 104 -10 195 -16
200 -13 230 -17 230 -34 0 -26 217 23 400 91 553 205 931 619 1095 1201 66
238 95 537 76 799 -7 92 -17 190 -22 217 -5 28 -6 53 -2 56 5 4 42 19 83 35
190 72 928 410 996 456 132 90 224 279 289 594 29 141 102 410 163 600 l38
120 37 -155 c107 -449 131 -630 132 -1005 0 -236 -4 -308 -18 -385 -46 -250
-118 -440 -231 -608 -102 -154 -158 -188 -326 -199 -188 -12 -333 50 -406 174
-40 69 -91 238 -118 393 -49 278 -66 287 -66 37 1 -252 38 -422 120 -545 87
-129 243 -197 455 -197 229 0 341 60 468 253 188 281 269 578 270 982 1 251
-27 480 -89 723 l-25 99 20 53 c11 30 34 118 50 197 125 600 105 964 -74 1333
-48 100 -167 281 -227 346 -22 24 -23 33 -24 165 -2 120 -6 155 -32 257 -33
126 -108 296 -167 379 -22 31 -59 114 -99 226 -121 332 -200 498 -305 640
-122 164 -255 283 -417 375 -51 28 -62 32 -70 20 -7 -12 -18 -8 -56 23 -26 21
-45 40 -43 42 1 2 22 -6 45 -18 23 -12 44 -19 46 -17 3 2 -23 46 -57 97 -71
107 -193 234 -261 274 -75 44 -430 187 -803 323 -173 63 -258 75 -335 47z
m235 -170 c138 -56 463 -176 630 -233 83 -29 168 -59 190 -69 44 -19 162 -106
240 -176 l50 -45 -127 49 c-316 123 -695 215 -1197 290 -106 16 -195 31 -197
32 -7 8 84 114 121 142 86 66 148 68 290 10z m-3813 -28 c79 -14 208 -32 288
-42 158 -18 194 -26 140 -31 -416 -36 -702 -70 -978 -116 -115 -20 -187 -28
-179 -21 31 30 190 129 262 165 154 75 238 83 467 45z m-5422 -2886 c116 -17
462 -50 521 -50 15 0 19 7 20 38 0 30 2 33 9 17 5 -11 6 -40 4 -65 -3 -27 11
-138 34 -277 l38 -232 -48 -123 c-27 -68 -83 -213 -124 -323 -42 -110 -79
-204 -84 -209 -5 -5 -101 23 -222 64 -520 179 -606 246 -616 485 -5 118 14
234 59 363 43 122 80 188 150 265 71 78 60 76 259 47z m6405 -191 c560 -8 704
-13 726 -24 35 -19 86 -96 107 -165 13 -41 17 -89 16 -190 -1 -166 -21 -247
-99 -406 -64 -132 -126 -205 -228 -268 -265 -164 -626 -218 -1609 -242 -232
-6 -278 -4 -282 7 -2 8 -27 169 -54 359 l-51 345 134 215 c73 118 155 254 181
303 l49 87 205 -5 c113 -3 520 -10 905 -16z m5378 -605 c-8 -21 -23 -17 -23 6
0 13 5 18 14 14 8 -3 12 -12 9 -20z m-2402 -210 c82 -41 150 -180 184 -379 24
-140 44 -565 26 -565 -3 0 -17 17 -31 37 -46 68 -194 208 -283 267 -99 66
-207 111 -287 122 -65 8 -59 -3 20 -35 168 -70 369 -248 499 -446 184 -278
322 -651 381 -1030 27 -168 37 -487 21 -650 -54 -559 -285 -998 -678 -1290
-169 -126 -467 -255 -692 -300 -126 -25 -319 -17 -426 18 -349 116 -611 500
-761 1116 -36 150 -47 181 -60 168 -12 -12 15 -254 42 -374 52 -234 154 -483
264 -649 69 -103 227 -259 308 -304 95 -53 104 -61 62 -54 -211 36 -360 79
-506 148 -372 176 -610 508 -704 981 -12 61 -23 117 -26 126 -4 14 11 17 98
23 174 12 424 73 454 112 6 7 14 11 17 8 3 -4 37 10 74 31 194 106 355 265
514 508 184 281 425 821 500 1122 117 470 254 795 409 973 87 99 185 187 280
252 123 83 221 104 301 64z m-9865 -448 c209 -104 647 -212 1147 -282 103 -14
29 -13 -247 5 -202 13 -299 16 -324 9 -105 -28 -195 -125 -227 -242 -38 -139
11 -514 111 -866 48 -166 126 -400 136 -406 14 -9 4 51 -52 326 -79 386 -117
680 -107 827 7 102 40 169 107 220 44 34 46 35 115 29 39 -3 176 -15 305 -26
129 -11 259 -22 288 -25 l52 -6 0 -209 c0 -115 4 -220 10 -234 18 -49 -124
-37 1580 -136 382 -22 846 -49 1030 -60 411 -25 395 -25 420 0 19 19 20 33 20
216 l0 196 63 -6 c89 -8 299 -23 717 -51 441 -29 469 -36 583 -144 61 -58 74
-83 103 -200 30 -122 64 -209 132 -346 165 -332 477 -740 836 -1094 84 -82
122 -127 114 -132 -6 -4 -48 -17 -93 -28 -298 -75 -609 -42 -1014 106 -103 37
-143 42 -2801 362 -278 34 -695 84 -928 112 l-424 52 -91 -29 c-81 -26 -107
-29 -217 -29 -115 1 -133 3 -220 33 -52 18 -170 73 -262 122 -92 49 -202 103
-243 120 -218 87 -450 271 -581 461 -99 143 -175 320 -208 486 -14 71 -36 265
-36 321 0 15 -7 26 -20 29 -11 3 -20 12 -20 20 0 22 19 53 34 53 9 0 16 53 25
223 6 122 15 248 18 279 l6 57 46 -39 c25 -21 78 -54 117 -74z m1989 -172
c248 -14 673 -38 945 -54 272 -16 674 -39 893 -52 l397 -22 0 -323 0 -323 -42
0 c-24 0 -428 23 -898 50 -470 27 -1064 61 -1320 76 -256 14 -475 28 -487 30
l-23 4 0 324 0 324 43 -4 c23 -2 245 -16 492 -30z m8525 -1409 c0 -15 -46 -32
-57 -21 -8 7 40 46 49 39 5 -2 8 -11 8 -18z"/>
<path d="M154 3556 c-3 -8 -4 -24 -2 -36 3 -19 39 -36 243 -116 302 -118 306
-119 155 -39 -382 202 -390 206 -396 191z"/>
<path d="M9516 8141 c-13 -20 -19 -131 -8 -131 10 0 86 119 80 125 -11 9 -67
14 -72 6z"/>
<path d="M10449 7752 c-160 -102 -239 -397 -239 -892 0 -209 15 -340 75 -659
67 -362 97 -491 115 -501 11 -6 74 3 186 26 93 19 288 60 433 89 145 30 266
57 268 59 4 4 -7 76 -12 76 -2 0 -698 -165 -800 -189 -22 -6 -43 -7 -46 -3 -9
10 -70 271 -113 484 -79 389 -95 564 -77 839 17 264 48 426 103 532 26 52 94
124 137 147 20 11 31 19 25 20 -5 0 -30 -13 -55 -28z"/>
<path d="M11071 7696 c47 -19 106 -45 130 -57 24 -13 51 -24 59 -24 9 0 14 -8
12 -18 -2 -10 17 -50 42 -90 74 -120 166 -370 306 -832 94 -311 173 -595 169
-600 -2 -2 -103 -29 -224 -61 -121 -31 -224 -60 -228 -64 -5 -4 -2 -21 5 -37
l13 -30 245 74 c135 41 248 78 252 81 12 12 -235 817 -339 1106 -98 272 -180
436 -219 436 -11 0 -13 6 -9 20 5 14 1 22 -12 26 -10 3 -43 17 -73 31 -60 28
-187 73 -204 73 -6 -1 28 -16 75 -34z"/>
<path d="M11534 7488 c113 -77 137 -110 285 -384 110 -206 184 -362 216 -464
31 -94 44 -261 30 -386 -7 -65 -7 -67 -45 -81 -35 -14 -38 -17 -28 -39 l11
-23 47 24 48 24 7 125 c15 266 -37 424 -284 859 -120 211 -186 295 -262 335
-24 12 -36 17 -25 10z"/>
<path d="M11531 7269 c-1 -3 23 -57 53 -120 122 -256 238 -577 296 -819 18
-74 38 -157 45 -185 7 -27 54 -150 104 -273 50 -123 107 -274 125 -335 71
-233 94 -482 61 -665 -55 -312 -250 -836 -521 -1401 -46 -96 -83 -175 -82
-176 2 -2 18 -10 36 -19 l33 -17 60 128 c268 567 465 1099 529 1429 59 310
-16 652 -265 1193 -41 90 -68 170 -100 295 -52 204 -124 419 -206 611 -59 139
-167 366 -168 354z"/>
<path d="M8159 5593 c-13 -16 -12 -17 4 -4 9 7 17 15 17 17 0 8 -8 3 -21 -13z"/>
<path d="M3016 5218 c-14 -50 -28 -331 -24 -502 3 -167 5 -185 27 -229 28 -58
98 -117 178 -149 49 -19 76 -23 178 -23 112 0 124 2 177 28 82 40 120 91 198
262 143 318 242 587 221 608 -20 20 -148 -176 -299 -458 -158 -296 -151 -290
-297 -290 -76 0 -99 5 -147 27 -31 14 -64 37 -73 51 -11 17 -21 73 -31 174
-23 243 -47 400 -71 476 -16 52 -27 59 -37 25z"/>
<path d="M3186 4947 c-129 -41 -20 -114 205 -137 148 -15 288 6 303 45 8 21
-38 52 -113 76 -82 26 -332 37 -395 16z"/>
<path d="M1345 4260 c-8 -13 72 -35 270 -75 804 -161 2221 -275 3425 -275 341
0 682 14 723 29 l22 9 -25 10 c-50 19 -426 50 -1065 87 -738 42 -992 58 -1335
81 -395 26 -864 61 -1265 94 -585 49 -740 57 -750 40z"/>
<path d="M190 2617 c0 -73 30 -269 59 -377 192 -740 640 -1224 1214 -1315 463
-72 963 30 1341 275 75 48 125 93 239 213 154 163 241 266 233 275 -11 11
-192 -127 -396 -302 -132 -114 -445 -247 -690 -295 -303 -58 -624 -49 -868 25
-258 78 -509 281 -696 561 -146 221 -251 452 -360 796 -55 172 -76 212 -76
144z"/>
</g>
</svg>
